# xmcd
#
# Track frame offsets:
# 150
# 19497
# 41125
# 62329
# 80064
# 94112
# 114671
# 148824
# 168838
# 185530
# 208947
# 228392
# 250283
# 283275
# 307486
#
# Disc length: 4331 seconds
#
#
# Revision: 0
# Processed by: cddbd v1.5PL3 Copyright (c) Steve Scherf et al.
# Submitted via: FreeRIP 2.53 
#
DISCID=e910e90f
DTITLE=Dick Wellstood - Live at the Sticky Wicket 1
DYEAR=1997
DGENRE=Boogie Woogie
TTITLE0=Lullaby of Birdland
TTITLE1=How About You
TTITLE2=If Dreams Come True
TTITLE3=St James Infirmary
TTITLE4=Birmingham Breakdown
TTITLE5=Ain't Misbehavin'
TTITLE6=Snowy Morning Blues and Carolina Shout
TTITLE7=Ther Is No Greater Love
TTITLE8=Fidgety Feet
TTITLE9=The Entertainer
TTITLE10=Handful of Keys
TTITLE11=You Go To My Head
TTITLE12=I've Got A Feeling I'm Falling and Zonky
TTITLE13=Ain'tcha Got Music and Old Fashioned Love
TTITLE14=Keep Off The Grass
EXTD=Arbors Records ARCD 19188
EXTT0=
EXTT1=
EXTT2=
EXTT3=
EXTT4=
EXTT5=
EXTT6=
EXTT7=
EXTT8=
EXTT9=
EXTT10=
EXTT11=
EXTT12=
EXTT13=
EXTT14=
PLAYORDER=
